# xmcd
#
# Track frame offsets:
#	150
#	14255
#	32863
#	47166
#	60276
#	77358
#	93386
#	106220
#	123987
#	136275
#	149299
#	164619
#
# Disc length: 2400 seconds
#
# Revision: 1
# Processed by: cddbd v1.5.1PL0 Copyright (c) Steve Scherf et al.
# Submitted via: EasyCDDAExtractor 6.2.0.3
#
DISCID=96095e0c
DTITLE=Franco Befani - Florence Blues
DYEAR=2001
DGENRE=
TTITLE0=Florence Blues
TTITLE1=Collac
TTITLE2=All Day Blues
TTITLE3=Last Beach
TTITLE4=Country Air
TTITLE5=Blues For Me
TTITLE6=Black Wolf
TTITLE7=Devil's Right Hand
TTITLE8=Great DOme
TTITLE9=Latin Blues
TTITLE10=Moonlight Blues
TTITLE11=Goodbye
EXTD=
EXTT0=
EXTT1=
EXTT2=
EXTT3=
EXTT4=
EXTT5=
EXTT6=
EXTT7=
EXTT8=
EXTT9=
EXTT10=
EXTT11=
PLAYORDER=
